<?xml version="1.0" encoding="UTF-8"?><svg id="Layer_2" xmlns="http://www.w3.org/2000/svg" viewBox="0 0 315 212.154"><g id="Layer_1-2"><path d="m87.334,154.15c1.966-37.139,32.801-66.747,70.421-66.747s68.455,29.608,70.421,66.747H87.334Zm170.341,0h-18.367c-1.979-43.274-37.8-77.87-81.553-77.87s-79.574,34.596-81.553,77.87h-18.764c-3.072,0-5.561,2.49-5.561,5.561s2.49,5.561,5.561,5.561h200.237c3.072,0,5.561-2.49,5.561-5.561s-2.49-5.561-5.561-5.561h0Z" fill="#262422" stroke-width="0"/><path d="m238.008,183.152c0-3.071-2.49-5.561-5.561-5.561H82.666c-3.071,0-5.561,2.49-5.561,5.561s2.49,5.561,5.561,5.561h149.781c3.071,0,5.561-2.49,5.561-5.561h0Z" fill="#262422" stroke-width="0"/><path d="m114.052,201.031c-3.072,0-5.561,2.49-5.561,5.561s2.49,5.561,5.561,5.561h87.008c3.072,0,5.561-2.49,5.561-5.561s-2.49-5.561-5.561-5.561h-87.008Z" fill="#262422" stroke-width="0"/><path d="m188.516,74.86c.612.216,1.237.319,1.852.319,2.291,0,4.438-1.428,5.244-3.711l19.442-55.071c1.022-2.896-.496-6.073-3.393-7.096-2.896-1.022-6.073.497-7.095,3.393l-19.443,55.071c-1.022,2.896.497,6.073,3.393,7.096h0Z" fill="#262422" stroke-width="0"/><path d="m215.561,90.319c1.034.848,2.281,1.26,3.522,1.26,1.609,0,3.205-.695,4.305-2.037l37.018-45.171c1.946-2.376,1.599-5.88-.776-7.827-2.376-1.947-5.88-1.599-7.827.776l-37.018,45.172c-1.947,2.376-1.599,5.88.776,7.826h0Z" fill="#262422" stroke-width="0"/><path d="m235.732,114.057c1.041,1.747,2.888,2.716,4.784,2.716.968,0,1.948-.253,2.84-.784l50.178-29.883c2.639-1.572,3.504-4.985,1.933-7.624-1.572-2.639-4.985-3.504-7.624-1.933l-50.178,29.883c-2.639,1.571-3.504,4.985-1.933,7.624h0Z" fill="#262422" stroke-width="0"/><path d="m308.387,125.7l-57.351,11.03c-3.016.58-4.991,3.495-4.411,6.511.512,2.662,2.842,4.512,5.455,4.512.348,0,.702-.033,1.057-.101l57.351-11.03c3.016-.58,4.991-3.495,4.411-6.511-.58-3.016-3.495-4.992-6.512-4.411h0Z" fill="#262422" stroke-width="0"/><path d="m157.174,69.523c.015,0,.029,0,.044,0,.095,0,.188-.01.282-.014.094.004.186.014.282.014.015,0,.029,0,.044,0,3.072-.024,5.542-2.533,5.518-5.604l-.282-36.38.17-21.934c.024-3.071-2.447-5.581-5.518-5.604-.015,0-.029,0-.044,0-.057,0-.113.007-.169.009-.057-.002-.112-.009-.17-.009-.015,0-.029,0-.044,0-3.072.024-5.542,2.533-5.518,5.604l.17,21.934-.282,36.38c-.024,3.071,2.446,5.581,5.518,5.604h0Z" fill="#262422" stroke-width="0"/><path d="m119.388,71.467c.807,2.284,2.952,3.711,5.244,3.711.614,0,1.239-.103,1.852-.319,2.896-1.023,4.415-4.2,3.393-7.096l-19.443-55.071c-1.022-2.896-4.2-4.415-7.095-3.393-2.896,1.023-4.415,4.2-3.393,7.096l19.442,55.071h0Z" fill="#262422" stroke-width="0"/><path d="m91.613,89.543c1.099,1.342,2.696,2.037,4.305,2.037,1.24,0,2.488-.413,3.522-1.26,2.376-1.947,2.723-5.451.776-7.826l-37.018-45.172c-1.947-2.375-5.451-2.723-7.827-.776-2.375,1.947-2.723,5.451-.776,7.827l37.018,45.171h0Z" fill="#262422" stroke-width="0"/><path d="m21.466,86.107l50.178,29.883c.892.531,1.872.784,2.84.784,1.895,0,3.743-.97,4.784-2.716,1.571-2.639.706-6.053-1.933-7.624l-50.178-29.883c-2.639-1.571-6.052-.706-7.624,1.933-1.571,2.639-.706,6.052,1.933,7.624h0Z" fill="#262422" stroke-width="0"/><path d="m62.92,147.754c2.613,0,4.943-1.85,5.455-4.512.58-3.016-1.395-5.931-4.411-6.511l-57.351-11.03c-3.017-.579-5.932,1.395-6.512,4.411-.58,3.016,1.395,5.932,4.411,6.511l57.351,11.03c.355.068.708.101,1.057.101h0Z" fill="#262422" stroke-width="0"/></g></svg>